<?xml version="1.0" standalone="no"?>
<!DOCTYPE svg PUBLIC "-//W3C//DTD SVG 20010904//EN"
 "http://www.w3.org/TR/2001/REC-SVG-20010904/DTD/svg10.dtd">
<svg version="1.0" xmlns="http://www.w3.org/2000/svg"
 width="500.000000pt" height="500.000000pt" viewBox="0 0 500.000000 500.000000"
 preserveAspectRatio="xMidYMid meet">
<metadata>
Created by potrace 1.11, written by Peter Selinger 2001-2013
</metadata>
<g transform="translate(0.000000,500.000000) scale(0.100000,-0.100000)"
fill="#000000" stroke="none">
<path d="M2220 4830 c-30 -30 -21 -144 19 -225 50 -102 117 -155 203 -164 4
-1 6 -29 5 -63 l-2 -63 -175 -1 c-154 0 -188 -3 -280 -26 -206 -52 -334 -107
-515 -225 -193 -126 -344 -265 -476 -441 -148 -195 -224 -354 -297 -622 -62
-223 -82 -333 -87 -458 l-3 -76 -48 -3 c-201 -9 -347 -204 -370 -494 -7 -82
25 -249 68 -362 54 -140 176 -290 284 -348 42 -23 49 -31 48 -55 -1 -16 -5
-83 -10 -149 -23 -341 16 -581 106 -645 38 -27 55 -25 125 15 122 71 170 80
312 57 29 -5 86 -10 128 -11 66 -2 82 -6 122 -33 157 -107 492 -230 708 -262
23 -4 52 -9 65 -11 141 -28 525 -28 700 0 19 3 49 8 65 10 17 2 53 9 80 15 28
6 61 14 75 16 14 3 27 9 28 15 2 5 8 7 13 3 9 -5 101 17 144 35 11 5 47 18 80
31 33 12 83 31 110 42 51 20 171 87 214 120 18 14 42 18 105 18 44 0 108 5
141 10 33 5 90 10 127 11 71 1 76 -1 201 -70 69 -39 105 -36 141 12 43 57 67
135 82 267 10 87 7 326 -6 439 -6 57 -10 104 -8 105 2 1 28 18 59 39 51 34 81
64 163 162 47 55 118 222 131 307 2 18 8 51 12 73 19 101 2 282 -34 365 -79
180 -186 269 -330 273 -28 1 -31 3 -22 19 9 17 8 54 -7 183 -17 141 -113 489
-173 626 -98 223 -290 472 -491 639 -171 141 -433 286 -605 333 -164 46 -205
52 -375 52 -169 0 -166 0 -253 -43 -5 -2 -7 41 -6 97 l3 101 48 0 c26 0 49 0
51 0 1 0 32 8 69 18 126 35 201 98 241 199 29 74 15 82 -130 77 -106 -4 -116
-6 -170 -28 -46 -19 -113 -85 -114 -113 0 -10 -9 5 -19 32 -40 111 -90 165
-172 183 -66 16 -75 15 -98 -8z"/>
</g>
</svg>
