<?xml version="1.0" standalone="no"?>
<!DOCTYPE svg PUBLIC "-//W3C//DTD SVG 20010904//EN"
 "http://www.w3.org/TR/2001/REC-SVG-20010904/DTD/svg10.dtd">
<svg version="1.0" xmlns="http://www.w3.org/2000/svg"
 width="631.000000pt" height="631.000000pt" viewBox="0 0 631.000000 631.000000"
 preserveAspectRatio="xMidYMid meet">
<metadata>
Created by potrace 1.11, written by Peter Selinger 2001-2013
</metadata>
<g transform="translate(0.000000,631.000000) scale(0.100000,-0.100000)"
fill="#000000" stroke="none">
<path d="M3487 6054 c-3 -4 -1 -12 6 -19 7 -7 32 -38 57 -68 25 -31 52 -59 60
-62 9 -3 38 -28 65 -56 50 -52 48 -54 -14 -12 -19 13 -40 23 -48 23 -9 0 -28
11 -44 25 -16 13 -35 22 -43 19 -7 -3 -19 2 -26 11 -7 8 -21 15 -31 15 -11 0
-19 4 -19 10 0 5 -32 9 -74 9 -41 0 -83 4 -94 10 -12 6 -23 7 -26 3 -3 -5 -31
-7 -63 -5 -43 3 -54 2 -43 -6 12 -8 8 -11 -17 -11 -25 0 -30 -4 -27 -18 6 -20
-46 -45 -67 -31 -8 5 -20 2 -31 -8 -9 -8 -24 -13 -33 -9 -17 6 -66 -17 -103
-49 -50 -43 -94 -91 -101 -109 -7 -17 -8 -17 -25 -1 -16 16 -19 16 -54 -7 -32
-22 -40 -35 -57 -97 -16 -58 -26 -77 -52 -97 -23 -17 -33 -33 -33 -52 0 -19
-10 -35 -34 -54 -19 -15 -36 -38 -38 -50 -2 -13 -10 -23 -18 -23 -17 0 -31
-55 -32 -120 0 -22 -3 -31 -5 -20 -12 50 -43 39 -43 -16 0 -18 -6 -28 -19 -32
-18 -4 -51 -58 -51 -83 0 -7 -4 -16 -10 -19 -6 -3 -7 1 -4 9 3 9 2 16 -4 16
-5 0 -13 -7 -16 -16 -3 -8 -11 -12 -16 -9 -6 4 -9 2 -8 -4 2 -6 -10 -22 -27
-35 l-30 -25 80 28 c44 16 118 36 165 46 47 9 94 21 105 26 42 18 268 40 475
46 213 6 544 -10 565 -26 5 -5 37 -12 70 -16 229 -26 449 -109 515 -192 11
-14 20 -23 20 -20 0 9 -58 164 -69 184 -11 20 -124 277 -134 306 -4 9 -2 17 3
17 5 0 47 36 93 80 70 66 88 89 106 139 20 55 21 63 7 95 -17 41 -37 51 -171
91 -106 32 -226 90 -378 185 -61 39 -117 70 -124 70 -7 0 -13 5 -13 10 0 11
-13 13 -23 4z"/>
<path d="M3005 5930 c3 -5 8 -10 11 -10 2 0 4 5 4 10 0 6 -5 10 -11 10 -5 0
-7 -4 -4 -10z"/>
<path d="M581 5856 c-11 -25 -24 -46 -28 -46 -5 0 -14 -9 -21 -21 -8 -12 -9
-18 -2 -14 6 4 16 2 23 -3 8 -7 18 -6 32 5 14 11 16 17 8 20 -17 6 -16 23 3
62 9 18 14 35 11 37 -3 3 -14 -15 -26 -40z"/>
<path d="M787 5880 c-3 -10 -1 -22 5 -28 12 -12 -11 -31 -59 -48 -30 -10 -33
-13 -14 -14 13 0 41 10 62 22 30 17 39 28 39 49 0 31 -26 47 -33 19z"/>
<path d="M614 5876 c-4 -11 -1 -22 7 -28 11 -8 10 -9 -3 -4 -13 4 -18 0 -18
-12 0 -12 9 -18 28 -20 15 -1 32 -9 38 -17 20 -26 25 -16 10 20 -8 19 -24 44
-35 56 -19 20 -21 21 -27 5z"/>
<path d="M735 5830 c-3 -5 1 -10 9 -10 8 0 18 5 21 10 3 6 -1 10 -9 10 -8 0
-18 -4 -21 -10z"/>
<path d="M820 5820 c-9 -6 -10 -10 -3 -10 6 0 15 5 18 10 8 12 4 12 -15 0z"/>
<path d="M379 5806 c8 -9 10 -16 5 -15 -21 4 -35 -2 -29 -11 3 -5 1 -10 -5
-10 -6 0 -8 -4 -5 -10 3 -5 1 -10 -5 -10 -6 0 -8 -5 -5 -11 4 -6 -1 -17 -11
-25 -18 -14 -17 -15 8 -10 15 4 30 2 33 -4 3 -5 -2 -10 -11 -10 -10 0 -15 -3
-11 -6 6 -6 83 18 122 38 16 9 18 8 8 -3 -19 -20 -16 -28 9 -21 18 4 20 2 14
-14 -5 -14 1 -11 21 10 19 19 24 30 16 33 -7 3 -13 11 -13 20 0 10 -6 12 -22
7 -21 -7 -37 -8 -71 -3 -19 3 -32 21 -32 43 0 11 -7 22 -15 24 -13 5 -13 3 -1
-12z"/>
<path d="M840 5806 c0 -2 7 -7 16 -10 8 -3 12 -2 9 4 -6 10 -25 14 -25 6z"/>
<path d="M896 5717 c3 -10 9 -15 12 -12 3 3 0 11 -7 18 -10 9 -11 8 -5 -6z"/>
<path d="M162 5661 c-9 -17 -21 -31 -25 -31 -5 0 -5 -4 -2 -10 3 -5 2 -10 -3
-10 -5 0 -15 -13 -22 -29 -22 -53 -78 -45 -96 14 -8 29 -8 29 -12 -14 -4 -58
3 -78 23 -61 13 11 14 10 9 -3 -5 -13 2 -16 36 -14 23 1 37 3 31 5 -6 2 -11
11 -11 20 0 11 3 13 8 5 11 -18 70 11 83 41 7 14 16 23 20 20 5 -2 22 8 39 25
20 19 38 27 50 24 23 -6 29 21 8 31 -7 4 -3 4 10 2 12 -2 22 0 22 5 0 12 -37
11 -45 -1 -8 -13 -61 -13 -86 0 -16 9 -22 6 -37 -19z m-88 -136 c-6 -16 -24
-21 -24 -7 0 11 11 22 21 22 5 0 6 -7 3 -15z"/>
<path d="M730 5671 c0 -10 28 -41 36 -41 2 0 -3 11 -12 25 -17 26 -24 31 -24
16z"/>
<path d="M1270 5666 c-20 -8 -43 -26 -53 -44 -16 -27 -16 -31 -3 -26 8 3 18
15 21 25 11 35 101 52 146 29 10 -6 19 -8 19 -5 0 8 -66 35 -82 34 -7 0 -29
-6 -48 -13z"/>
<path d="M716 5647 c3 -10 9 -15 12 -12 3 3 0 11 -7 18 -10 9 -11 8 -5 -6z"/>
<path d="M921 5624 c0 -11 3 -14 6 -6 3 7 2 16 -1 19 -3 4 -6 -2 -5 -13z"/>
<path d="M740 5627 c0 -17 24 -67 32 -67 7 0 6 5 -1 13 -6 8 -8 17 -5 20 4 3
-1 13 -10 22 -9 9 -16 15 -16 12z"/>
<path d="M1310 5603 c0 -20 -5 -33 -12 -33 -15 0 -52 -38 -61 -62 -3 -10 -13
-18 -22 -18 -18 0 -20 -21 -3 -38 8 -8 8 -15 -2 -27 -12 -14 -15 -14 -31 1
-11 10 -19 12 -19 7 0 -6 7 -16 16 -23 8 -8 20 -22 25 -32 9 -18 7 -19 -25
-12 -30 5 -35 4 -31 -9 4 -8 18 -20 32 -26 14 -6 23 -14 20 -17 -3 -3 -15 -1
-26 6 -25 13 -26 8 -6 -30 15 -28 14 -30 -5 -30 -30 0 -24 -15 11 -33 30 -14
31 -15 12 -25 -14 -8 -23 -8 -31 0 -9 9 -12 7 -12 -10 0 -17 6 -22 24 -22 42
0 76 18 76 40 0 12 4 18 10 15 5 -3 25 -3 44 0 33 7 34 8 25 38 -5 18 -9 46
-9 64 0 26 -6 34 -37 50 -39 18 -53 47 -34 66 7 7 14 7 24 -2 11 -9 28 -8 76
4 33 9 65 14 71 10 11 -7 40 46 40 76 0 17 -5 20 -24 17 -32 -6 -41 0 -53 36
-12 37 -39 50 -28 15 6 -21 4 -20 -14 6 l-21 30 0 -32z m75 -72 c6 -20 -3 -51
-16 -51 -14 0 -38 41 -32 56 8 20 41 17 48 -5z m45 -1 c0 -5 -2 -10 -4 -10 -3
0 -8 5 -11 10 -3 6 -1 10 4 10 6 0 11 -4 11 -10z m-115 -20 c3 -5 -1 -10 -10
-10 -9 0 -13 5 -10 10 3 6 8 10 10 10 2 0 7 -4 10 -10z"/>
<path d="M560 5580 c0 -5 5 -10 10 -10 6 0 10 5 10 10 0 6 -4 10 -10 10 -5 0
-10 -4 -10 -10z"/>
<path d="M590 5561 c0 -6 4 -13 10 -16 6 -3 7 1 4 9 -7 18 -14 21 -14 7z"/>
<path d="M570 5540 c0 -5 5 -10 11 -10 5 0 7 5 4 10 -3 6 -8 10 -11 10 -2 0
-4 -4 -4 -10z"/>
<path d="M783 5513 c4 -23 18 -44 41 -63 18 -14 19 -14 5 10 -8 14 -18 28 -24
32 -6 5 -5 8 3 8 10 0 10 3 -2 15 -19 20 -27 19 -23 -2z"/>
<path d="M1559 5523 c-14 -3 -39 -55 -39 -81 0 -17 36 -15 63 3 18 12 22 22
19 50 -4 34 -9 37 -43 28z"/>
<path d="M170 5506 c0 -2 7 -7 16 -10 8 -3 12 -2 9 4 -6 10 -25 14 -25 6z"/>
<path d="M620 5481 c0 -6 6 -11 13 -11 8 0 7 -4 -3 -10 -9 -6 -10 -10 -3 -10
19 0 24 17 8 30 -10 9 -15 9 -15 1z"/>
<path d="M438 5423 c6 -2 12 -12 12 -21 0 -12 3 -13 11 -5 14 14 3 33 -19 32
-11 0 -12 -3 -4 -6z"/>
<path d="M360 5410 c0 -13 18 -22 24 -11 3 5 -1 11 -9 15 -8 3 -15 1 -15 -4z"/>
<path d="M830 5416 c0 -2 7 -6 15 -10 8 -3 15 -1 15 4 0 6 -7 10 -15 10 -8 0
-15 -2 -15 -4z"/>
<path d="M241 5394 c-1 -6 8 -19 19 -29 18 -16 20 -16 20 -2 0 10 -6 17 -14
17 -8 0 -17 6 -19 13 -3 7 -6 7 -6 1z"/>
<path d="M855 5380 c3 -5 8 -10 11 -10 2 0 4 5 4 10 0 6 -5 10 -11 10 -5 0 -7
-4 -4 -10z"/>
<path d="M830 5373 c0 -19 30 -70 52 -89 23 -19 23 -19 6 2 -10 11 -18 27 -18
36 0 8 -9 25 -20 38 -11 13 -20 19 -20 13z"/>
<path d="M17 5288 c4 -24 10 -46 15 -49 5 -3 8 -10 7 -15 -4 -24 3 -46 21 -64
11 -11 19 -23 18 -26 -3 -11 26 -74 34 -74 5 0 6 -5 2 -11 -4 -8 -9 -8 -17 0
-17 17 -31 13 -17 -4 7 -9 19 -14 27 -11 7 3 13 0 13 -6 0 -7 4 -7 13 0 10 8
13 6 13 -8 0 -10 -4 -16 -9 -13 -5 3 -14 -1 -19 -8 -8 -11 -9 -10 -4 4 3 9 1
17 -4 17 -10 0 -11 -57 -1 -75 3 -5 8 1 12 15 l7 25 1 -28 c1 -38 28 -77 48
-70 12 5 14 3 8 -7 -6 -9 -4 -11 5 -5 10 6 9 11 -6 22 -14 10 -16 16 -7 21 14
9 10 47 -7 68 -7 7 -9 18 -5 24 3 5 1 10 -5 10 -6 0 -8 5 -5 10 3 6 -1 13 -10
16 -13 5 -14 9 -4 15 10 6 9 12 -7 26 -11 10 -24 34 -28 53 -3 19 -17 58 -31
85 -13 28 -28 62 -34 78 -16 41 -30 32 -24 -15z m143 -358 c0 -5 -2 -10 -4
-10 -3 0 -8 5 -11 10 -3 6 -1 10 4 10 6 0 11 -4 11 -10z"/>
<path d="M400 5315 c0 -8 5 -15 10 -15 6 0 10 7 10 15 0 8 -4 15 -10 15 -5 0
-10 -7 -10 -15z"/>
<path d="M500 5304 c0 -18 27 -37 35 -24 3 5 3 10 -1 10 -3 0 -1 6 5 14 10 11
7 14 -14 12 -14 0 -25 -6 -25 -12z"/>
<path d="M285 5299 c-4 -6 -5 -12 -2 -15 2 -3 7 2 10 11 7 17 1 20 -8 4z"/>
<path d="M290 5265 c-7 -9 -10 -18 -6 -22 3 -3 6 -1 6 7 0 10 3 10 14 1 12
-10 13 -8 9 8 -6 25 -7 25 -23 6z"/>
<path d="M544 5240 c0 -11 4 -20 8 -20 5 0 6 -12 3 -27 -4 -23 -4 -25 4 -8 8
17 10 13 12 -20 1 -25 3 -31 6 -17 2 12 8 20 13 17 5 -3 12 0 16 6 4 7 3 9 -4
6 -6 -4 -16 10 -24 35 -14 45 -34 61 -34 28z"/>
<path d="M490 5231 c0 -10 30 -24 37 -17 3 2 -5 9 -16 16 -12 6 -21 7 -21 1z"/>
<path d="M1741 5196 l-23 -13 22 -6 c28 -7 50 1 50 19 0 17 -18 17 -49 0z"/>
<path d="M1628 5173 c7 -3 16 -2 19 1 4 3 -2 6 -13 5 -11 0 -14 -3 -6 -6z"/>
<path d="M590 5141 c0 -5 6 -14 14 -20 12 -10 13 -8 9 8 -5 21 -23 30 -23 12z"/>
<path d="M1100 5103 c-10 -22 -19 -29 -35 -25 -14 2 -24 -2 -28 -12 -5 -13 1
-16 27 -16 18 0 39 7 46 15 7 8 23 15 36 15 13 0 24 5 24 10 0 6 -9 10 -20 10
-10 0 -23 7 -28 16 -8 14 -11 12 -22 -13z"/>
<path d="M1195 5100 c-14 -6 -15 -9 -5 -10 12 0 12 -2 -2 -11 -21 -11 -15 -31
25 -80 22 -28 29 -31 37 -19 15 23 12 29 -16 36 -16 4 -24 12 -22 22 2 12 15
16 51 16 39 -1 44 1 30 11 -9 7 -13 17 -9 23 5 8 -1 12 -18 12 -13 0 -30 2
-38 4 -7 3 -22 1 -33 -4z"/>
<path d="M1300 5101 c0 -5 9 -7 20 -4 11 3 20 7 20 9 0 2 -9 4 -20 4 -11 0
-20 -4 -20 -9z"/>
<path d="M610 5089 c0 -5 5 -7 10 -4 6 3 10 8 10 11 0 2 -4 4 -10 4 -5 0 -10
-5 -10 -11z"/>
<path d="M580 5064 c0 -1 6 -7 14 -13 10 -9 15 -8 19 2 3 8 -3 13 -14 13 -11
0 -19 -1 -19 -2z"/>
<path d="M1320 5016 c0 -3 12 -17 28 -31 15 -14 23 -25 17 -24 -19 5 -105 -13
-105 -22 0 -4 16 -21 36 -36 19 -15 45 -36 57 -47 12 -10 52 -41 90 -68 37
-28 67 -54 67 -59 0 -9 89 27 105 43 6 6 1 9 -15 7 -75 -7 -110 13 -48 27 33
7 33 7 11 21 -12 8 -34 26 -48 39 -20 18 -30 22 -40 14 -17 -15 -87 -17 -92
-4 -2 7 16 15 44 21 l48 9 -33 16 c-18 9 -30 13 -27 9 5 -8 -60 -31 -89 -31
-27 0 -18 27 12 36 15 4 32 8 37 9 12 1 8 25 -7 43 -13 15 -48 35 -48 28z
m200 -171 c14 -8 21 -15 15 -15 -5 -1 -30 -3 -55 -6 l-45 -5 25 20 c30 24 28
24 60 6z"/>
<path d="M4006 4914 c13 -5 7 -41 -8 -61 -6 -7 -7 -26 -3 -43 4 -19 2 -36 -5
-45 -7 -8 -10 -22 -6 -30 3 -9 0 -15 -9 -15 -7 0 -17 -4 -20 -10 -3 -5 2 -9
12 -8 37 3 51 -3 56 -22 3 -11 1 -20 -4 -20 -5 0 -9 4 -9 9 0 5 -8 7 -19 4
-10 -2 -60 3 -112 12 -102 18 -133 20 -342 30 -127 6 -151 11 -325 61 -249 73
-410 103 -628 118 -238 17 -439 -2 -679 -62 -139 -35 -181 -50 -313 -117 -112
-56 -174 -95 -230 -142 -42 -36 -94 -77 -114 -91 -21 -13 -40 -32 -43 -41 -3
-10 -34 -57 -69 -105 -62 -85 -65 -92 -82 -188 -17 -97 -18 -99 -43 -97 -14 1
-34 -1 -44 -5 -9 -3 -24 -8 -31 -10 -8 -3 -22 -19 -31 -36 -16 -31 -16 -31 5
-20 11 6 29 8 40 5 18 -6 23 -18 35 -101 l6 -41 40 7 c22 4 42 3 45 -1 3 -5
-5 -9 -18 -9 -52 0 -68 -11 -68 -44 0 -18 -3 -36 -7 -40 -4 -4 -8 -33 -9 -65
-2 -32 -8 -78 -15 -102 -7 -24 -14 -48 -14 -54 -7 -52 -30 -137 -40 -145 -17
-14 -32 119 -16 148 6 10 7 22 4 26 -3 3 1 14 9 23 32 38 58 150 58 247 0 127
-13 158 -44 99 -23 -47 -52 -198 -36 -188 6 4 10 -4 10 -16 0 -19 -2 -20 -17
-8 -16 13 -17 12 -4 -4 11 -13 13 -42 8 -125 -5 -111 -21 -172 -58 -223 -12
-17 -19 -32 -17 -34 3 -3 92 2 199 10 107 8 204 15 217 15 28 0 29 22 2 97
-24 68 -23 63 -5 63 8 0 12 -6 9 -13 -3 -8 2 -19 9 -26 29 -23 28 19 -1 72
-15 29 -38 77 -50 108 -13 30 -32 63 -43 72 -11 10 -17 23 -13 29 5 8 17 0 35
-22 16 -18 27 -36 25 -39 -6 -10 57 -132 80 -158 16 -16 37 33 32 74 -3 26 -1
28 27 24 41 -4 45 -8 45 -42 0 -16 5 -29 10 -29 17 0 -15 -169 -35 -182 -5 -4
0 -8 12 -8 19 0 22 7 28 58 8 60 51 152 72 152 8 0 6 -11 -7 -32 -10 -18 -26
-58 -34 -88 -8 -30 -18 -65 -22 -77 -5 -19 -1 -22 28 -27 54 -8 408 -15 408
-8 0 4 -9 41 -20 82 -25 95 -25 90 9 90 34 0 40 -12 48 -99 5 -55 4 -66 -12
-77 -17 -13 -16 -14 12 -14 32 0 43 -16 58 -85 3 -16 22 -46 41 -67 l34 -38
11 43 c6 24 21 57 35 73 22 27 25 28 37 12 13 -16 15 -16 30 3 20 23 37 17 37
-12 0 -22 11 -24 28 -7 9 9 15 8 27 -8 19 -23 14 -92 -9 -148 -9 -21 -16 -40
-16 -43 0 -2 21 14 48 35 57 48 86 58 117 42 19 -10 27 -10 45 3 21 14 21 15
-13 35 -19 11 -44 23 -56 27 -40 12 -64 176 -64 445 0 320 39 590 104 716 10
21 19 44 19 52 0 8 26 40 59 71 l58 58 104 6 c68 5 155 2 249 -8 226 -23 254
-27 267 -37 7 -5 17 -7 24 -3 6 4 21 3 32 -3 12 -6 92 -24 177 -41 247 -48
404 -82 415 -91 6 -4 51 -17 101 -29 51 -12 120 -32 155 -45 l64 -23 43 -89
c98 -201 80 -179 138 -181 100 -3 189 -70 213 -161 14 -51 0 -153 -26 -190
-10 -13 -23 -34 -30 -45 -20 -36 -94 -99 -138 -118 -24 -11 -64 -22 -89 -25
-52 -7 -55 -10 -94 -83 -53 -101 -116 -165 -208 -212 -46 -24 -84 -46 -84 -49
0 -3 51 -15 113 -28 110 -22 174 -20 197 5 5 4 20 55 34 112 14 58 27 105 29
106 3 1 335 -13 376 -16 23 -2 36 -9 39 -21 4 -16 10 -20 28 -17 4 0 10 -3 13
-8 11 -15 235 -83 306 -93 39 -5 113 -12 165 -15 52 -4 104 -10 115 -15 21 -9
564 -46 810 -56 76 -3 142 -7 146 -10 3 -2 34 6 68 19 l61 22 0 522 0 522
-427 -4 c-236 -2 -486 -6 -556 -8 -112 -3 -127 -2 -124 12 6 33 -139 95 -378
162 -82 23 -157 45 -166 50 -9 5 -98 29 -198 54 -99 25 -193 50 -208 56 -16 6
-80 26 -143 43 -71 19 -116 37 -118 45 -3 12 0 12 12 2 8 -7 20 -10 26 -6 5 3
10 2 10 -2 0 -5 24 -9 53 -10 37 -1 74 -11 130 -37 42 -19 77 -31 77 -26 0 9
-15 48 -33 88 -6 13 -12 31 -12 40 0 21 -30 118 -59 191 -24 63 -49 85 -121
105 -49 15 -96 21 -69 10z m-127 -320 c10 -9 -56 -3 -69 7 -11 7 -4 8 25 3 22
-4 42 -8 44 -10z m58 -10 c-3 -3 -12 -4 -19 -1 -8 3 -5 6 6 6 11 1 17 -2 13
-5z m-40 -10 c-3 -3 -12 -4 -19 -1 -8 3 -5 6 6 6 11 1 17 -2 13 -5z m78 -14
c7 -12 -12 -12 -40 0 -18 8 -17 9 7 9 15 1 30 -3 33 -9z m1320 -561 c-10 -15
-25 -10 -19 6 4 8 10 12 15 9 5 -3 7 -10 4 -15z m-120 -16 c-11 -3 -24 -9 -29
-14 -6 -5 -15 -9 -20 -9 -6 0 -2 7 8 15 11 8 29 14 40 14 20 -1 21 -1 1 -6z
m795 -157 c0 -2 -7 -7 -16 -10 -8 -3 -12 -2 -9 4 6 10 25 14 25 6z m-210 -117
c0 -5 3 -8 8 -6 4 2 30 1 57 -3 l50 -7 -67 -2 c-37 0 -70 4 -73 9 -8 13 -55
13 -55 0 0 -5 -10 -9 -22 -8 -13 0 -36 -2 -53 -6 -25 -5 -26 -4 -10 4 16 8 10
9 -25 6 -38 -4 -85 -17 -185 -51 -19 -6 -19 -6 -2 8 13 11 15 17 6 22 -8 6 -7
10 5 17 10 6 20 7 23 4 4 -3 1 -6 -5 -6 -7 0 -12 -4 -12 -10 0 -5 9 -10 21
-10 13 0 18 4 13 12 -5 8 -1 9 12 4 15 -6 17 -5 7 5 -7 7 -13 17 -13 21 0 4
72 8 160 8 106 0 160 -4 160 -11z m17 -55 c-3 -3 -12 -4 -19 -1 -8 3 -5 6 6 6
11 1 17 -2 13 -5z m-418 -18 c-2 -2 -17 -6 -34 -9 l-30 -6 30 13 c26 12 47 13
34 2z m474 7 c-7 -2 -21 -2 -30 0 -10 3 -4 5 12 5 17 0 24 -2 18 -5z m-603
-43 c0 -5 -6 -10 -12 -10 -7 0 -25 -7 -40 -14 -16 -8 -28 -11 -28 -7 0 7 26
20 78 40 1 1 2 -3 2 -9z m773 3 c-7 -2 -19 -2 -25 0 -7 3 -2 5 12 5 14 0 19
-2 13 -5z m227 -2 c16 -5 -2 -8 -53 -8 -42 -1 -80 3 -83 8 -6 11 100 10 136 0z
m-5037 -51 c3 -11 2 -20 -3 -20 -4 0 -10 9 -13 20 -3 11 -2 20 3 20 4 0 10 -9
13 -20z m3887 -14 c0 -2 -9 -6 -20 -9 -11 -3 -18 -1 -14 4 5 9 34 13 34 5z
m-70 -40 c0 -2 -7 -7 -16 -10 -8 -3 -12 -2 -9 4 6 10 25 14 25 6z"/>
<path d="M6262 4647 c-27 -28 -30 -36 -20 -49 7 -10 25 -20 41 -24 l27 -6 0
56 c0 31 -4 56 -8 56 -4 0 -22 -15 -40 -33z"/>
<path d="M2589 4191 c-14 -5 -43 -20 -66 -35 -43 -29 -62 -27 -100 7 l-23 20
0 -25 c0 -26 27 -58 49 -58 9 0 11 -8 6 -27 -17 -64 -24 -112 -25 -170 0 -65
17 -163 28 -163 4 0 5 39 3 86 -8 199 46 300 170 320 l44 7 -36 -34 c-78 -73
-80 -234 -5 -316 52 -57 148 -56 197 3 13 16 14 15 19 -12 l6 -29 14 25 c11
18 15 59 15 150 0 114 -2 128 -23 163 -35 56 -99 89 -180 93 -37 2 -79 0 -93
-5z"/>
<path d="M3660 4180 c-82 -15 -149 -77 -175 -162 -21 -72 -20 -227 2 -276 l17
-37 7 127 c6 113 10 134 35 185 33 66 63 91 119 100 l40 6 -31 -35 c-63 -72
-69 -204 -13 -292 43 -69 102 -84 166 -45 l34 21 -7 -28 c-6 -27 -5 -28 8 -9
36 48 57 198 39 275 -9 39 -8 47 8 60 22 18 41 52 41 75 0 14 -6 12 -31 -9
-35 -30 -51 -32 -70 -10 -31 38 -126 65 -189 54z"/>
<path d="M990 4160 c0 -5 7 -7 15 -4 8 4 15 8 15 10 0 2 -7 4 -15 4 -8 0 -15
-4 -15 -10z"/>
<path d="M305 4020 c-82 -10 -175 -19 -205 -19 -30 -1 -65 -4 -77 -7 l-23 -6
0 -323 0 -322 68 -6 c37 -4 207 -7 379 -7 l312 0 -6 38 c-7 47 -46 159 -75
214 -12 24 -23 48 -24 54 -1 6 -9 27 -18 45 -24 52 -37 126 -35 198 2 72 -7
115 -22 105 -5 -3 -28 -3 -49 1 -34 6 -40 11 -40 31 0 28 15 28 -185 4z m278
-317 c-18 -2 -48 -2 -65 0 -18 2 -4 4 32 4 36 0 50 -2 33 -4z m-316 -10 c-20
-2 -52 -2 -70 0 -17 2 0 4 38 4 39 0 53 -2 32 -4z"/>
<path d="M849 3944 c-9 -12 -24 -15 -50 -11 -29 4 -42 0 -55 -14 -16 -17 -19
-18 -40 -4 -37 24 -37 1 1 -72 19 -37 35 -74 35 -80 0 -7 5 -13 10 -13 6 0 10
-8 10 -17 -1 -25 -35 21 -80 106 -19 36 -39 65 -45 64 -15 -4 -18 -112 -4
-162 7 -25 23 -65 35 -90 12 -26 25 -56 28 -69 4 -12 12 -20 17 -17 5 4 9 0 9
-7 0 -10 2 -10 9 1 7 11 9 11 13 0 6 -19 30 83 28 118 -4 61 0 83 14 77 16 -6
56 61 56 93 0 10 9 33 20 51 31 50 22 86 -11 46z"/>
<path d="M3227 3723 c5 -12 3 -14 -8 -8 -12 8 -12 6 0 -8 7 -9 9 -17 3 -17 -5
0 -8 -9 -5 -19 3 -13 -1 -21 -14 -24 -10 -3 -1 -5 20 -6 34 -1 37 1 36 27 -1
38 -12 67 -26 69 -8 2 -10 -4 -6 -14z"/>
<path d="M2890 3531 c0 -33 48 -79 118 -113 62 -31 73 -33 172 -33 99 0 109 2
172 33 92 45 138 108 91 126 -12 5 -29 -7 -58 -38 -47 -51 -106 -81 -180 -90
-93 -12 -213 38 -251 104 -21 35 -64 43 -64 11z"/>
<path d="M2868 3020 c-2 -6 -41 -26 -88 -45 -66 -27 -95 -46 -132 -85 -27 -28
-48 -54 -48 -59 0 -5 -6 -16 -12 -23 -22 -23 -45 -71 -58 -116 -6 -24 -38 -80
-71 -126 -32 -46 -59 -86 -59 -89 0 -4 -16 -31 -35 -62 -36 -55 -36 -59 -1
-55 12 1 16 -2 11 -11 -6 -9 -2 -11 13 -7 12 4 20 3 17 -2 -3 -4 2 -11 10 -14
13 -4 14 -10 5 -26 -6 -11 -15 -20 -21 -20 -6 0 -25 -11 -43 -25 -18 -14 -37
-25 -42 -25 -5 0 -25 42 -43 93 -19 50 -38 97 -43 103 -4 6 -19 42 -32 80 -35
101 -37 104 -56 104 -30 0 -43 -25 -31 -62 20 -69 79 -229 89 -241 5 -7 12
-22 16 -34 3 -13 8 -32 11 -42 7 -23 -2 -22 -70 9 -57 27 -227 42 -239 21 -9
-13 -66 -15 -66 -1 0 5 -6 7 -13 4 -8 -3 -14 -11 -14 -19 0 -8 4 -12 8 -9 7 4
35 -37 31 -43 -1 -2 -2 -9 -1 -15 1 -7 4 -2 8 12 5 18 18 28 50 37 24 7 48 10
52 7 12 -7 11 -51 -1 -75 -8 -14 -7 -19 1 -19 7 0 9 -9 6 -21 -5 -18 2 -14 34
17 35 34 39 43 34 72 -3 17 -3 32 0 32 14 0 172 -43 188 -52 16 -8 17 -12 4
-31 -7 -12 -17 -37 -20 -55 l-7 -33 33 23 c17 13 32 21 32 19 0 -3 15 1 33 7
19 6 31 16 28 21 -7 10 26 21 67 21 38 0 147 -33 147 -45 0 -5 16 -26 36 -47
34 -34 37 -42 42 -110 4 -63 1 -81 -21 -130 -28 -63 -46 -76 -39 -28 5 36 -14
40 -56 12 -112 -76 -199 -125 -210 -118 -5 3 -9 -2 -9 -10 0 -8 5 -13 11 -11
6 3 32 1 58 -3 26 -3 54 -2 64 3 9 5 14 6 11 1 -6 -11 19 -111 32 -128 10 -12
10 -13 -18 -179 -11 -65 -24 -123 -28 -130 -4 -7 -8 -19 -10 -27 -13 -94 -59
-236 -83 -260 -9 -9 -32 -39 -51 -66 -48 -71 -123 -139 -139 -129 -6 4 -10 -1
-10 -9 0 -9 19 -29 42 -46 34 -25 50 -30 99 -30 32 0 70 5 84 10 35 13 57 1
125 -70 51 -52 60 -58 122 -69 64 -12 68 -14 62 -37 -5 -19 -3 -23 9 -18 9 3
17 15 19 27 3 17 5 15 9 -10 3 -19 2 -30 -4 -26 -5 3 -7 0 -5 -8 3 -8 -1 -18
-9 -24 -10 -8 -7 -10 14 -12 16 -1 44 -3 63 -4 19 -2 52 1 73 5 30 7 37 5 37
-7 0 -8 -10 -17 -22 -20 -20 -6 -19 -20 3 -23 5 -1 12 -2 17 -3 4 -1 -4 -10
-18 -21 l-25 -20 23 0 c26 0 31 -20 5 -20 -17 -1 -17 -1 0 -14 9 -7 17 -16 17
-20 0 -10 -198 -7 -205 4 -3 6 1 10 9 10 9 0 16 5 16 10 0 6 -7 10 -16 10 -8
0 -12 5 -9 10 3 6 18 10 33 10 l27 1 -28 15 c-31 17 -28 34 6 34 21 1 21 1 -3
15 -14 8 -28 14 -32 15 -9 0 -29 -71 -22 -82 3 -4 0 -8 -7 -8 -9 0 -9 -3 0
-14 6 -7 9 -21 5 -30 -4 -10 -1 -16 7 -16 10 0 11 -2 2 -8 -6 -4 44 -7 111 -7
100 0 127 -3 149 -18 15 -9 27 -21 27 -26 0 -4 -44 -13 -97 -20 -159 -19 -162
-20 -63 -17 54 2 86 0 75 -5 -11 -4 -35 -8 -53 -8 -19 -1 -31 -5 -27 -11 3 -5
2 -10 -4 -10 -6 0 -7 -7 -4 -17 4 -10 2 -14 -5 -9 -6 3 -13 2 -17 -4 -4 -6
-11 -8 -16 -4 -16 10 -79 -6 -79 -20 0 -16 36 -49 77 -70 43 -22 169 -21 224
1 34 13 38 18 25 25 -12 7 -25 5 -41 -6 -19 -12 -37 -14 -100 -7 -71 8 -94 19
-95 44 0 4 39 7 88 7 104 0 134 14 130 62 -2 20 -10 33 -23 39 -20 8 -20 8 0
9 11 0 29 7 39 15 29 22 33 19 30 -20 -2 -25 1 -35 11 -35 8 0 15 -7 15 -15 0
-17 23 -20 51 -5 22 12 26 32 4 24 -15 -6 -19 0 -29 47 -4 20 1 30 23 47 l29
21 37 -35 c20 -19 41 -32 46 -29 14 9 11 59 -5 81 -8 11 -11 23 -6 29 5 6 5
28 0 49 -16 71 17 109 97 110 35 1 40 -1 29 -12 -7 -7 -22 -15 -32 -16 -19 -3
-19 -3 -9 -101 1 -11 7 -33 13 -48 7 -16 12 -33 12 -38 0 -5 5 -9 10 -9 6 0
10 3 10 8 0 8 14 9 130 14 139 5 211 -20 164 -58 -13 -10 -14 -14 -4 -11 8 2
25 18 37 36 12 17 24 27 28 22 4 -7 12 -7 23 -2 9 5 25 12 34 15 11 3 15 11
12 21 -3 8 -1 15 5 15 6 0 16 11 21 25 5 14 15 25 22 25 14 0 17 68 4 88 -3 6
4 14 16 17 l21 7 -24 19 c-29 23 -45 24 -57 4 -7 -14 -11 -13 -30 3 -27 24
-28 32 -2 32 38 0 69 24 104 80 37 60 78 87 115 75 34 -11 100 -8 115 4 33 28
35 66 8 122 -15 30 -30 56 -33 59 -3 3 -18 37 -33 75 -15 39 -32 75 -37 81 -5
7 -12 20 -14 30 -2 11 -20 66 -40 124 -20 58 -45 139 -56 180 -11 41 -26 89
-34 106 -16 34 -46 184 -96 484 -32 195 -33 196 -42 220 -12 34 -24 100 -18
100 8 0 129 -151 156 -195 10 -16 51 -71 91 -121 66 -83 76 -92 114 -98 38 -6
48 -2 109 38 103 69 179 170 181 242 0 14 -52 68 -172 176 -209 188 -487 474
-545 558 -9 14 -26 33 -37 42 -12 10 -27 23 -34 29 -22 19 -121 59 -161 65
-33 5 -41 3 -50 -14 -6 -12 -40 -35 -75 -52 -36 -18 -73 -41 -82 -51 -22 -24
-35 -24 -66 0 -13 11 -53 31 -88 45 -77 32 -115 63 -99 83 9 10 8 13 -4 13 -8
0 -17 -5 -19 -10z m515 -113 c25 -10 16 -12 -67 -12 -53 0 -96 1 -96 3 0 1 10
7 23 12 32 13 107 11 140 -3z m-410 -4 c3 -5 -26 -8 -63 -8 -54 0 -73 -4 -91
-20 -21 -19 -19 -7 4 23 10 13 142 18 150 5z m155 -80 c-10 -2 -26 -2 -35 0
-10 3 -2 5 17 5 19 0 27 -2 18 -5z m-338 -130 c-11 -17 -11 -17 -6 0 3 10 7
31 7 45 l2 27 4 -27 c2 -15 -1 -35 -7 -45z m357 -54 c7 -30 19 -83 27 -119 9
-36 18 -78 20 -95 3 -16 13 -77 22 -135 14 -91 23 -329 15 -410 -2 -14 0 -53
4 -87 4 -35 4 -63 -1 -63 -12 0 -9 -69 4 -102 8 -19 8 -44 3 -75 -5 -26 -6
-52 -3 -58 7 -10 8 -16 11 -72 0 -17 7 -33 14 -36 6 -2 2 -2 -10 0 -29 4 -30
-8 -2 -25 15 -10 18 -17 11 -24 -8 -8 -8 -17 -1 -30 10 -18 2 -22 -38 -21 -19
1 -16 -11 7 -25 22 -13 28 -68 9 -74 -9 -3 -9 -10 0 -27 10 -19 10 -26 -3 -40
-22 -24 -20 -34 4 -26 25 8 26 -5 3 -31 -11 -11 -18 -35 -18 -60 0 -26 7 -49
18 -61 21 -24 22 -37 2 -53 -24 -20 -17 -116 8 -114 21 2 23 -12 2 -20 -12 -4
-13 -10 -6 -24 7 -13 7 -32 0 -57 -8 -27 -8 -45 0 -61 8 -19 7 -27 -8 -41 -10
-10 -23 -27 -29 -38 -6 -11 -12 -14 -12 -7 0 9 -7 9 -31 -3 -41 -21 -120 -14
-169 16 -8 5 -30 15 -48 24 -18 8 -31 19 -27 25 3 6 0 13 -8 15 -9 4 -12 16
-9 35 3 20 0 30 -8 30 -9 0 -6 7 6 21 20 22 21 29 27 195 2 61 7 117 11 123 4
7 3 18 -3 25 -6 7 -8 16 -5 19 4 3 3 14 -1 24 -11 29 -13 143 -2 150 6 4 7 1
2 -7 -5 -8 -4 -11 3 -6 6 4 11 19 11 34 1 50 7 81 22 98 8 9 15 29 15 43 1 14
4 72 8 128 3 56 2 104 -3 107 -11 7 -4 325 8 351 11 25 30 147 37 240 2 39 9
93 14 120 5 28 19 111 30 185 28 177 29 182 42 178 7 -3 18 -29 25 -59z m-293
-1545 c11 -30 7 -42 -14 -37 -15 4 -18 9 -10 17 6 9 6 16 -2 24 -9 9 -8 12 4
12 9 0 19 -7 22 -16z m9 -143 c0 -39 3 -71 5 -71 3 0 11 8 18 18 12 16 13 15
14 -5 0 -12 -6 -26 -14 -30 -14 -8 -25 -63 -31 -143 -3 -58 -21 -86 -72 -115
l-48 -27 -58 19 c-59 18 -79 37 -82 78 -1 11 -5 36 -9 55 -6 30 -2 40 25 70
17 19 56 65 86 103 50 62 67 79 61 60 -2 -5 2 -8 7 -8 6 0 9 13 7 30 -2 24 0
27 10 17 16 -16 28 -15 28 3 0 18 32 37 44 25 5 -5 9 -40 9 -79z m597 3 c0 -8
-4 -12 -10 -9 -5 3 -10 13 -10 21 0 8 5 12 10 9 6 -3 10 -13 10 -21z m30 -103
c0 -5 -6 -11 -12 -14 -9 -3 -6 -10 8 -21 12 -8 25 -27 28 -41 4 -14 11 -25 16
-25 5 0 7 -7 4 -15 -4 -8 -1 -15 6 -15 8 0 11 -9 8 -25 -4 -17 -1 -25 9 -25 8
0 19 -5 26 -10 7 -6 21 -17 32 -25 19 -14 18 -14 -17 -15 -20 0 -39 6 -42 13
-3 8 -8 7 -16 -6 -6 -9 -15 -15 -21 -12 -5 4 -9 1 -9 -6 0 -7 -11 1 -25 17
-14 16 -25 38 -24 49 1 11 -4 33 -11 49 -13 25 -12 30 3 41 23 16 22 25 -3 25
-11 0 -20 5 -20 11 0 5 5 7 10 4 6 -3 10 4 10 18 0 13 3 27 7 30 10 10 33 8
33 -2z m-582 -40 c3 -8 -1 -12 -9 -9 -7 2 -15 10 -17 17 -3 8 1 12 9 9 7 -2
15 -10 17 -17z m0 -266 c13 -13 -26 -25 -88 -26 -110 -2 -128 3 -95 27 15 11
40 14 98 10 44 -2 82 -7 85 -11z m547 -5 c-3 -5 -27 -9 -53 -8 l-47 1 45 7
c25 4 49 8 53 8 5 1 5 -2 2 -8z m-481 -40 c11 0 48 -13 80 -28 l59 -28 -23
-22 c-13 -12 -29 -22 -34 -23 -6 0 -27 -2 -47 -4 -36 -4 -37 -3 -50 43 -7 25
-14 41 -17 34 -2 -7 -11 -12 -20 -12 -13 0 -14 2 -3 9 9 6 11 19 7 42 -6 34
-6 34 10 12 9 -13 26 -23 38 -23z m550 -12 c15 -35 15 -37 -1 -31 -33 11 -40
22 -35 54 5 35 15 29 36 -23z m266 -2 c0 -3 -4 -8 -10 -11 -5 -3 -10 -1 -10 4
0 6 5 11 10 11 6 0 10 -2 10 -4z m-895 -26 c3 -5 -1 -10 -10 -10 -9 0 -13 5
-10 10 3 6 8 10 10 10 2 0 7 -4 10 -10z m508 -25 c9 -2 31 1 47 7 17 5 38 7
48 3 13 -6 6 -12 -33 -31 l-50 -24 53 7 c58 6 66 -3 25 -30 l-28 -17 26 6 c27
6 48 -9 29 -21 -7 -5 -5 -11 6 -19 14 -11 1 -14 -81 -20 -65 -5 -101 -4 -108
3 -8 8 -5 11 8 11 19 1 19 1 3 14 -23 17 -23 26 2 26 11 0 20 5 20 10 0 6 -11
10 -25 10 -14 0 -25 5 -25 10 0 6 9 10 19 10 33 0 33 18 1 25 -16 4 -30 10
-30 14 0 16 16 22 45 16 16 -3 38 -8 48 -10z m-333 -156 c0 -18 -35 -5 -38 14
-3 16 -1 17 17 7 12 -6 21 -15 21 -21z"/>
<path d="M2940 1180 c0 -19 3 -21 12 -12 9 9 9 15 0 24 -9 9 -12 7 -12 -12z"/>
<path d="M1790 2270 c0 -5 5 -10 11 -10 5 0 7 5 4 10 -3 6 -8 10 -11 10 -2 0
-4 -4 -4 -10z"/>
<path d="M0 1080 l0 -1080 38 0 38 0 -4 278 c-2 152 -9 282 -14 289 -5 6 -9
74 -8 150 1 76 -6 426 -14 778 -9 352 -16 646 -16 653 0 6 -4 12 -10 12 -7 0
-10 -367 -10 -1080z"/>
<path d="M5945 1801 c-16 -4 -29 -12 -28 -19 4 -16 -41 -26 -64 -14 -25 14
-95 0 -73 -13 8 -6 35 -11 60 -12 25 -1 64 -5 87 -8 34 -6 44 -4 49 9 7 18 49
22 59 6 11 -17 34 -11 46 12 10 18 8 24 -7 35 -19 14 -78 15 -129 4z"/>
<path d="M4454 1678 l-19 -23 23 19 c12 11 22 21 22 23 0 8 -8 2 -26 -19z"/>
<path d="M4400 1650 c-8 -5 -10 -10 -5 -10 6 0 17 5 25 10 8 5 11 10 5 10 -5
0 -17 -5 -25 -10z"/>
<path d="M3940 410 c0 -5 5 -10 10 -10 6 0 10 5 10 10 0 6 -4 10 -10 10 -5 0
-10 -4 -10 -10z"/>
<path d="M3879 383 c-34 -24 -40 -36 -23 -46 9 -5 23 -3 37 6 30 19 108 22
101 3 -4 -10 10 -16 51 -22 62 -10 75 -26 29 -35 -18 -4 -3 -7 41 -7 39 0 61
3 50 5 -21 6 -35 21 -35 40 0 8 12 10 38 6 20 -3 34 -2 30 2 -5 5 -34 9 -65 9
-33 1 -57 5 -56 11 1 6 -19 11 -43 12 -25 1 -51 6 -57 12 -8 6 -18 6 -27 1 -9
-6 -20 -4 -30 5 -14 13 -19 12 -41 -2z"/>
<path d="M4203 323 c-23 -9 -14 -20 28 -32 51 -15 64 -6 18 13 l-34 14 35 5
35 4 -35 1 c-19 0 -41 -2 -47 -5z"/>
<path d="M3999 315 c-3 -3 -49 -5 -102 -6 -56 0 -95 -5 -91 -10 3 -5 -3 -10
-13 -10 -10 -1 7 -5 37 -9 30 -3 68 -10 84 -15 20 -5 27 -5 22 3 -6 10 17 17
84 24 14 2 25 8 25 13 0 11 -37 19 -46 10z"/>
<path d="M2527 275 c-5 -10 0 -15 14 -15 12 0 19 5 17 12 -6 18 -25 20 -31 3z"/>
<path d="M4018 263 c7 -3 16 -2 19 1 4 3 -2 6 -13 5 -11 0 -14 -3 -6 -6z"/>
<path d="M3690 220 c0 -5 -6 -10 -14 -10 -20 0 -31 -19 -17 -33 7 -7 12 -6 17
6 3 9 9 15 13 13 4 -3 8 4 8 15 1 10 0 19 -3 19 -2 0 -4 -4 -4 -10z"/>
<path d="M3550 200 c-13 -8 -12 -10 3 -10 9 0 17 5 17 10 0 12 -1 12 -20 0z"/>
<path d="M3565 183 c-12 -2 -26 -17 -32 -34 -7 -17 -21 -33 -32 -36 -12 -3
-21 -9 -21 -13 0 -9 122 8 132 18 9 9 -10 73 -20 71 -4 -1 -16 -4 -27 -6z"/>
<path d="M3145 160 c-4 -6 7 -10 25 -10 18 0 29 4 25 10 -3 6 -15 10 -25 10
-10 0 -22 -4 -25 -10z"/>
<path d="M3675 140 c-3 -5 -1 -10 4 -10 6 0 11 5 11 10 0 6 -2 10 -4 10 -3 0
-8 -4 -11 -10z"/>
</g>
</svg>
